<svg width="89" height="92" viewBox="0 0 89 92" fill="none" xmlns="http://www.w3.org/2000/svg">
<path d="M54.4494 40.7C56.9917 40.7 59.1784 39.8382 61.0144 38.5274C59.5017 41.8127 58.6494 45.4683 58.6494 48.75C58.6494 49.4001 58.681 50.0629 58.748 50.7291C57.3868 49.5702 55.975 48.5227 54.5356 47.622C51.2812 45.5857 47.6419 44.15 43.9994 44.15C40.3569 44.15 36.7176 45.5857 33.4632 47.622C32.2319 48.3925 31.0208 49.2704 29.8443 50.2336C29.8816 49.7345 29.8994 49.2387 29.8994 48.75C29.8994 45.6365 29.0651 42.2328 27.6688 39.1372C29.3718 40.1056 31.3323 40.7 33.5494 40.7C37.9389 40.7 40.9826 37.9978 42.7537 34.9871C43.2419 34.1571 43.6561 33.273 43.9994 32.3589C44.3428 33.273 44.7569 34.1571 45.2451 34.9871C47.0162 37.9978 50.06 40.7 54.4494 40.7ZM67.0777 30.678C68.6442 27.2231 69.4994 23.3773 69.4994 20.15C69.4994 16.8961 68.7009 13.2331 66.9537 10.2629C65.1826 7.25217 62.1389 4.55 57.7494 4.55C52.309 4.55 48.497 8.49667 46.2655 12.344C45.3686 13.8905 44.6271 15.5777 44.057 17.2951C43.4774 15.4119 42.7026 13.5671 41.7482 11.8887C39.514 7.95969 35.7009 4 30.2494 4C25.86 4 22.8162 6.70217 21.0451 9.71293C19.3219 12.6425 18.5214 16.2459 18.4999 19.4662C18.268 22.7994 18.9086 26.5967 20.2964 30.028C18.537 28.9131 16.5274 28.2 14.2994 28.2C10.4363 28.2 7.61037 30.2225 5.90635 32.9289C4.28696 35.5009 3.64941 38.6795 3.64941 41.6C3.64941 45.9508 5.2786 50.8684 7.79397 54.72C10.2259 58.4439 14.1701 62.15 19.2494 62.15C19.368 62.15 19.4857 62.1481 19.6023 62.1443C16.6441 67.0356 14.6494 72.4168 14.6494 77.35C14.6494 81.0167 15.9951 83.9485 18.5658 85.8181C20.9352 87.5412 23.8611 88 26.3994 88C30.4271 88 33.8797 86.6526 36.6397 85.5755L36.6781 85.5605C39.6306 84.4083 41.7512 83.6 43.9994 83.6C45.9267 83.6 47.8665 84.3696 50.7147 85.5381L50.7774 85.5638C53.3745 86.6294 56.715 88 60.4994 88C62.8628 88 65.9665 87.7294 68.5734 86.2254C71.5106 84.5309 73.3494 81.5474 73.3494 77.35C73.3494 72.4054 71.3455 67.0107 68.376 62.1105C68.6769 62.1366 68.9847 62.15 69.2994 62.15C74.6111 62.15 78.5679 58.5034 80.9884 54.6775C83.4545 50.7795 84.8994 45.8729 84.8994 41.6C84.8994 38.5328 84.0587 35.3605 82.3866 32.8523C80.6921 30.3105 77.9281 28.2 74.2494 28.2C71.4827 28.2 69.0836 29.1893 67.0777 30.678Z" stroke="#FFC59E" stroke-width="7" stroke-linecap="round" stroke-linejoin="round"/>
</svg>
