<svg width="142" height="112" viewBox="0 0 142 112" fill="none" xmlns="http://www.w3.org/2000/svg">
<mask id="path-1-outside-1_376_1636" maskUnits="userSpaceOnUse" x="0" y="0" width="142" height="112" fill="black">
<rect fill="white" width="142" height="112"/>
<path fill-rule="evenodd" clip-rule="evenodd" d="M34.507 111C18.7285 111 9.81594 94.7836 6.71548 87.8127C-1.89518 68.5141 -0.720998 48.4482 9.86198 34.1406C11.4837 31.9481 13.278 30.2779 14.3586 29.272L14.3586 29.272C14.7639 28.8948 15.0687 28.6111 15.2264 28.4283C18.5455 25.6377 22.4301 23.5998 26.6126 22.455C29.9491 21.5418 34.2443 21.4401 35.4356 21.5392C38.5697 21.8118 45.6143 24.6115 48.0446 28.5536C48.4828 29.2643 48.8357 30.0242 49.096 30.8176C50.151 34.3472 49.7117 38.1551 47.8809 41.3519C53.0662 40.3952 59.8581 37.965 59.8581 31.6976V6.11626C59.8581 3.29063 62.1487 1 64.9743 1H66.0724H75.2068H76.3049C79.1305 1 81.4212 3.29063 81.4212 6.11626V31.6976C81.4212 37.965 88.213 40.3952 93.3983 41.3519C91.5675 38.1551 91.1283 34.3472 92.1832 30.8176C92.4436 30.0242 92.7964 29.2643 93.2346 28.5536C95.6649 24.6115 102.71 21.8118 105.844 21.5392C107.035 21.4401 111.33 21.5418 114.667 22.455C118.849 23.5998 122.734 25.6377 126.053 28.4283C126.21 28.611 126.515 28.8946 126.92 29.2717L126.92 29.2719L126.921 29.272C128.001 30.2778 129.796 31.9481 131.417 34.1406C142 48.4482 143.174 68.5141 134.564 87.8127C131.463 94.7836 122.551 111 106.772 111C103.386 111.019 100.027 110.393 96.8748 109.155C96.5918 109.052 95.8568 108.614 94.9872 108.038C89.9626 105.323 80.5903 97.8677 85.4245 79.2999C87.1133 76.1578 89.4837 73.4334 92.3621 71.3263C89.1249 70.2507 85.9722 68.9356 82.9303 67.3919L82.6259 67.2384C79.3143 65.5992 75.3745 64.5291 71.3886 64.2046C66.8243 64.3486 62.2372 65.4259 58.5755 67.2384L58.2711 67.3919C55.2291 68.9356 52.0765 70.2507 48.8393 71.3263C51.7176 73.4334 54.0881 76.1578 55.7769 79.2999C60.4696 97.3245 51.775 104.877 46.6658 107.787C45.6379 108.484 44.7272 109.037 44.4044 109.155C41.2523 110.393 37.8933 111.019 34.507 111ZM89.9438 97.6372C90.1239 97.867 90.3098 98.1112 90.5035 98.3657C92.0347 100.377 94.0577 103.034 97.5605 104.402C100.858 105.691 104.033 105.902 106.772 105.883C119.537 105.883 127.196 91.7931 129.89 85.7329C137.741 68.1355 136.774 49.9856 127.304 37.1822C122.567 30.2915 114.626 26.3139 106.271 26.6478C102.613 26.9573 98.1718 28.8785 97.0616 32.3806C96.2213 36.2194 97.6954 40.1958 100.835 42.5594C101.656 43.2525 101.956 44.3847 101.586 45.3935C101.217 46.4023 100.257 47.0728 99.1823 47.0719C98.2485 47.0719 76.3151 46.8698 76.3151 31.6976V6.11626H64.9641V31.6976C64.9641 46.8698 43.0307 47.0719 42.097 47.0719C41.0227 47.0728 40.0623 46.4023 39.6928 45.3935C39.3234 44.3847 39.6236 43.2525 40.4444 42.5594C43.5839 40.1958 45.0579 36.2194 44.2177 32.3806C43.1074 28.8785 38.6665 26.9573 35.0084 26.6478C26.6535 26.3139 18.7119 30.2915 13.9755 37.1822C4.50526 49.9856 3.53829 68.1355 11.3892 85.7329C14.0829 91.7931 21.7419 105.883 34.507 105.883C37.2466 105.902 40.4212 105.691 43.7188 104.402C47.2216 103.034 49.2445 100.377 50.7757 98.3657L50.7772 98.3637C50.9168 98.1804 51.0523 98.0024 51.1844 97.8314C52.8726 93.4012 53.5661 87.9006 51.3407 81.6944C48.8393 77.2805 45.2545 74.3554 40.8758 72.5618C39.7809 72.0662 39.1786 70.8753 39.4284 69.6997C39.6782 68.5241 40.7126 67.6809 41.9144 67.6732C41.9156 67.6726 41.9283 67.6716 41.9528 67.6696C42.4162 67.6322 47.0707 67.2567 55.9841 62.8L56.2911 62.6465C60.7938 60.4161 65.7073 59.3554 70.6007 59.4643C75.4941 59.3554 80.4075 60.4161 84.9103 62.6465L85.2173 62.8C94.1307 67.2567 98.7852 67.6322 99.2486 67.6696C99.273 67.6716 99.2858 67.6726 99.287 67.6732C100.489 67.6809 101.523 68.5241 101.773 69.6997C102.023 70.8753 101.42 72.0662 100.326 72.5618C95.9469 74.3554 92.3621 77.2805 89.8607 81.6944C87.6677 87.8102 88.3092 93.2408 89.9438 97.6372ZM72.6486 52.1629V41.9304C72.6486 40.5176 71.5033 39.3723 70.0904 39.3723C68.6776 39.3723 67.5323 40.5176 67.5323 41.9304V52.1629C67.5323 53.5757 68.6776 54.721 70.0904 54.721C71.5033 54.721 72.6486 53.5757 72.6486 52.1629ZM18.0807 40.2236C15.1239 44.2624 13.0797 48.8954 12.0896 53.8021C11.7995 55.1845 12.6847 56.5404 14.067 56.8309C14.2405 56.8664 14.417 56.8844 14.594 56.8847C15.8069 56.8813 16.8507 56.0266 17.0933 54.8381C17.9363 50.6526 19.6756 46.6993 22.1917 43.2498C24.771 39.5122 28.9055 37.1453 33.4346 36.8136C34.8474 36.8136 35.9928 35.6683 35.9928 34.2554C35.9928 32.8426 34.8474 31.6973 33.4346 31.6973C27.2732 32.0108 21.6039 35.1591 18.0807 40.2236ZM125.63 78.7276C124.64 83.6343 122.596 88.2673 119.639 92.3062C116.115 97.3707 110.446 100.519 104.285 100.832C102.872 100.832 101.727 99.6871 101.727 98.2743C101.727 96.8615 102.872 95.7162 104.285 95.7162C108.814 95.3845 112.948 93.0175 115.528 89.2799C118.044 85.8304 119.783 81.8771 120.626 77.6916C120.869 76.5032 121.912 75.6485 123.125 75.6451C123.302 75.6453 123.479 75.6633 123.652 75.6988C125.035 75.9893 125.92 77.3452 125.63 78.7276Z"/>
</mask>
<path fill-rule="evenodd" clip-rule="evenodd" d="M34.507 111C18.7285 111 9.81594 94.7836 6.71548 87.8127C-1.89518 68.5141 -0.720998 48.4482 9.86198 34.1406C11.4837 31.9481 13.278 30.2779 14.3586 29.272L14.3586 29.272C14.7639 28.8948 15.0687 28.6111 15.2264 28.4283C18.5455 25.6377 22.4301 23.5998 26.6126 22.455C29.9491 21.5418 34.2443 21.4401 35.4356 21.5392C38.5697 21.8118 45.6143 24.6115 48.0446 28.5536C48.4828 29.2643 48.8357 30.0242 49.096 30.8176C50.151 34.3472 49.7117 38.1551 47.8809 41.3519C53.0662 40.3952 59.8581 37.965 59.8581 31.6976V6.11626C59.8581 3.29063 62.1487 1 64.9743 1H66.0724H75.2068H76.3049C79.1305 1 81.4212 3.29063 81.4212 6.11626V31.6976C81.4212 37.965 88.213 40.3952 93.3983 41.3519C91.5675 38.1551 91.1283 34.3472 92.1832 30.8176C92.4436 30.0242 92.7964 29.2643 93.2346 28.5536C95.6649 24.6115 102.71 21.8118 105.844 21.5392C107.035 21.4401 111.33 21.5418 114.667 22.455C118.849 23.5998 122.734 25.6377 126.053 28.4283C126.21 28.611 126.515 28.8946 126.92 29.2717L126.92 29.2719L126.921 29.272C128.001 30.2778 129.796 31.9481 131.417 34.1406C142 48.4482 143.174 68.5141 134.564 87.8127C131.463 94.7836 122.551 111 106.772 111C103.386 111.019 100.027 110.393 96.8748 109.155C96.5918 109.052 95.8568 108.614 94.9872 108.038C89.9626 105.323 80.5903 97.8677 85.4245 79.2999C87.1133 76.1578 89.4837 73.4334 92.3621 71.3263C89.1249 70.2507 85.9722 68.9356 82.9303 67.3919L82.6259 67.2384C79.3143 65.5992 75.3745 64.5291 71.3886 64.2046C66.8243 64.3486 62.2372 65.4259 58.5755 67.2384L58.2711 67.3919C55.2291 68.9356 52.0765 70.2507 48.8393 71.3263C51.7176 73.4334 54.0881 76.1578 55.7769 79.2999C60.4696 97.3245 51.775 104.877 46.6658 107.787C45.6379 108.484 44.7272 109.037 44.4044 109.155C41.2523 110.393 37.8933 111.019 34.507 111ZM89.9438 97.6372C90.1239 97.867 90.3098 98.1112 90.5035 98.3657C92.0347 100.377 94.0577 103.034 97.5605 104.402C100.858 105.691 104.033 105.902 106.772 105.883C119.537 105.883 127.196 91.7931 129.89 85.7329C137.741 68.1355 136.774 49.9856 127.304 37.1822C122.567 30.2915 114.626 26.3139 106.271 26.6478C102.613 26.9573 98.1718 28.8785 97.0616 32.3806C96.2213 36.2194 97.6954 40.1958 100.835 42.5594C101.656 43.2525 101.956 44.3847 101.586 45.3935C101.217 46.4023 100.257 47.0728 99.1823 47.0719C98.2485 47.0719 76.3151 46.8698 76.3151 31.6976V6.11626H64.9641V31.6976C64.9641 46.8698 43.0307 47.0719 42.097 47.0719C41.0227 47.0728 40.0623 46.4023 39.6928 45.3935C39.3234 44.3847 39.6236 43.2525 40.4444 42.5594C43.5839 40.1958 45.0579 36.2194 44.2177 32.3806C43.1074 28.8785 38.6665 26.9573 35.0084 26.6478C26.6535 26.3139 18.7119 30.2915 13.9755 37.1822C4.50526 49.9856 3.53829 68.1355 11.3892 85.7329C14.0829 91.7931 21.7419 105.883 34.507 105.883C37.2466 105.902 40.4212 105.691 43.7188 104.402C47.2216 103.034 49.2445 100.377 50.7757 98.3657L50.7772 98.3637C50.9168 98.1804 51.0523 98.0024 51.1844 97.8314C52.8726 93.4012 53.5661 87.9006 51.3407 81.6944C48.8393 77.2805 45.2545 74.3554 40.8758 72.5618C39.7809 72.0662 39.1786 70.8753 39.4284 69.6997C39.6782 68.5241 40.7126 67.6809 41.9144 67.6732C41.9156 67.6726 41.9283 67.6716 41.9528 67.6696C42.4162 67.6322 47.0707 67.2567 55.9841 62.8L56.2911 62.6465C60.7938 60.4161 65.7073 59.3554 70.6007 59.4643C75.4941 59.3554 80.4075 60.4161 84.9103 62.6465L85.2173 62.8C94.1307 67.2567 98.7852 67.6322 99.2486 67.6696C99.273 67.6716 99.2858 67.6726 99.287 67.6732C100.489 67.6809 101.523 68.5241 101.773 69.6997C102.023 70.8753 101.42 72.0662 100.326 72.5618C95.9469 74.3554 92.3621 77.2805 89.8607 81.6944C87.6677 87.8102 88.3092 93.2408 89.9438 97.6372ZM72.6486 52.1629V41.9304C72.6486 40.5176 71.5033 39.3723 70.0904 39.3723C68.6776 39.3723 67.5323 40.5176 67.5323 41.9304V52.1629C67.5323 53.5757 68.6776 54.721 70.0904 54.721C71.5033 54.721 72.6486 53.5757 72.6486 52.1629ZM18.0807 40.2236C15.1239 44.2624 13.0797 48.8954 12.0896 53.8021C11.7995 55.1845 12.6847 56.5404 14.067 56.8309C14.2405 56.8664 14.417 56.8844 14.594 56.8847C15.8069 56.8813 16.8507 56.0266 17.0933 54.8381C17.9363 50.6526 19.6756 46.6993 22.1917 43.2498C24.771 39.5122 28.9055 37.1453 33.4346 36.8136C34.8474 36.8136 35.9928 35.6683 35.9928 34.2554C35.9928 32.8426 34.8474 31.6973 33.4346 31.6973C27.2732 32.0108 21.6039 35.1591 18.0807 40.2236ZM125.63 78.7276C124.64 83.6343 122.596 88.2673 119.639 92.3062C116.115 97.3707 110.446 100.519 104.285 100.832C102.872 100.832 101.727 99.6871 101.727 98.2743C101.727 96.8615 102.872 95.7162 104.285 95.7162C108.814 95.3845 112.948 93.0175 115.528 89.2799C118.044 85.8304 119.783 81.8771 120.626 77.6916C120.869 76.5032 121.912 75.6485 123.125 75.6451C123.302 75.6453 123.479 75.6633 123.652 75.6988C125.035 75.9893 125.92 77.3452 125.63 78.7276Z" fill="#FFC59E"/>
<path d="M6.71548 87.8127L7.62919 87.4063L7.62871 87.4052L6.71548 87.8127ZM34.507 111L34.5127 110H34.507V111ZM9.86198 34.1406L9.05802 33.5459L9.86198 34.1406ZM14.3586 29.272L13.7078 28.5128L13.6923 28.5261L13.6773 28.5401L14.3586 29.272ZM14.3586 29.272L15.0094 30.0313L15.025 30.018L15.04 30.004L14.3586 29.272ZM15.2264 28.4283L14.5829 27.6628L14.5215 27.7144L14.4692 27.7751L15.2264 28.4283ZM26.6126 22.455L26.8766 23.4196L26.6126 22.455ZM35.4356 21.5392L35.5222 20.543L35.5185 20.5427L35.4356 21.5392ZM48.0446 28.5536L47.1934 29.0784L48.0446 28.5536ZM49.096 30.8176L50.0541 30.5312L50.0503 30.5184L50.0462 30.5058L49.096 30.8176ZM47.8809 41.3519L47.0131 40.855L45.9412 42.7267L48.0623 42.3353L47.8809 41.3519ZM93.3983 41.3519L93.2169 42.3353L95.3381 42.7267L94.2661 40.855L93.3983 41.3519ZM92.1832 30.8176L91.2331 30.5058L91.2289 30.5184L91.2251 30.5312L92.1832 30.8176ZM93.2346 28.5536L94.0858 29.0784V29.0784L93.2346 28.5536ZM105.844 21.5392L105.761 20.5427L105.757 20.543L105.844 21.5392ZM114.667 22.455L114.931 21.4905L114.667 22.455ZM126.053 28.4283L126.81 27.7751L126.758 27.7144L126.696 27.6628L126.053 28.4283ZM126.92 29.2717L126.239 30.0036L126.245 30.0094L126.251 30.015L126.92 29.2717ZM126.92 29.2719L127.615 28.552L127.602 28.5401L127.589 28.5286L126.92 29.2719ZM126.921 29.272L126.226 29.9919L126.233 29.998L126.239 30.004L126.921 29.272ZM131.417 34.1406L130.613 34.7352L131.417 34.1406ZM134.564 87.8127L133.651 87.4052L133.65 87.4063L134.564 87.8127ZM106.772 111V110L106.767 110L106.772 111ZM96.8748 109.155L97.2403 108.224L97.229 108.22L97.2176 108.216L96.8748 109.155ZM94.9872 108.038L95.5395 107.204L95.502 107.18L95.4625 107.158L94.9872 108.038ZM85.4245 79.2999L84.5436 78.8265L84.4869 78.9321L84.4567 79.048L85.4245 79.2999ZM92.3621 71.3263L92.9528 72.1332L94.5166 70.9883L92.6774 70.3773L92.3621 71.3263ZM82.9303 67.3919L83.3828 66.5001L83.3805 66.4989L82.9303 67.3919ZM82.6259 67.2384L83.0761 66.3454L83.0695 66.3421L82.6259 67.2384ZM71.3886 64.2046L71.4698 63.2079L71.4135 63.2034L71.3571 63.2051L71.3886 64.2046ZM58.5755 67.2384L58.1319 66.3421L58.1253 66.3454L58.5755 67.2384ZM58.2711 67.3919L57.8209 66.4989L57.8185 66.5001L58.2711 67.3919ZM48.8393 71.3263L48.524 70.3773L46.6847 70.9883L48.2486 72.1332L48.8393 71.3263ZM55.7769 79.2999L56.7446 79.048L56.7145 78.9321L56.6577 78.8265L55.7769 79.2999ZM46.6658 107.787L46.1709 106.918L46.137 106.938L46.1046 106.96L46.6658 107.787ZM44.4044 109.155L44.0616 108.216L44.0502 108.22L44.0389 108.224L44.4044 109.155ZM90.5035 98.3657L89.7079 98.9715L89.7079 98.9715L90.5035 98.3657ZM89.9438 97.6372L89.0065 97.9857L89.0607 98.1313L89.1565 98.2537L89.9438 97.6372ZM97.5605 104.402L97.1966 105.334L97.5605 104.402ZM106.772 105.883V104.883L106.765 104.883L106.772 105.883ZM129.89 85.7329L128.977 85.3255L128.976 85.3267L129.89 85.7329ZM127.304 37.1822L126.48 37.7486L126.489 37.7629L126.5 37.7768L127.304 37.1822ZM106.271 26.6478L106.231 25.6486L106.209 25.6495L106.187 25.6514L106.271 26.6478ZM97.0616 32.3806L96.1083 32.0784L96.0945 32.122L96.0847 32.1667L97.0616 32.3806ZM100.835 42.5594L101.48 41.7954L101.459 41.7773L101.436 41.7605L100.835 42.5594ZM101.586 45.3935L102.525 45.7374V45.7373L101.586 45.3935ZM99.1823 47.0719L99.183 46.0719H99.1823V47.0719ZM76.3151 6.11626H77.3151V5.11626H76.3151V6.11626ZM64.9641 6.11626V5.11626H63.9641V6.11626H64.9641ZM42.097 47.0719V46.0719H42.0962L42.097 47.0719ZM39.6928 45.3935L38.7538 45.7373V45.7374L39.6928 45.3935ZM40.4444 42.5594L39.843 41.7605L39.8206 41.7773L39.7992 41.7954L40.4444 42.5594ZM44.2177 32.3806L45.1945 32.1667L45.1847 32.122L45.1709 32.0784L44.2177 32.3806ZM35.0084 26.6478L35.0927 25.6514L35.0705 25.6495L35.0483 25.6486L35.0084 26.6478ZM13.9755 37.1822L14.7794 37.7768L14.7897 37.7629L14.7995 37.7486L13.9755 37.1822ZM11.3892 85.7329L12.303 85.3267L12.3024 85.3255L11.3892 85.7329ZM34.507 105.883L34.5137 104.883H34.507V105.883ZM43.7188 104.402L44.0827 105.334L43.7188 104.402ZM50.7757 98.3657L49.9811 97.7586L49.9801 97.7599L50.7757 98.3657ZM50.7772 98.3637L51.5719 98.9708L51.5729 98.9694L50.7772 98.3637ZM51.1844 97.8314L51.9758 98.4426L52.0662 98.3256L52.1189 98.1874L51.1844 97.8314ZM51.3407 81.6944L52.282 81.3568L52.253 81.276L52.2107 81.2013L51.3407 81.6944ZM40.8758 72.5618L40.4634 73.4728L40.48 73.4803L40.4967 73.4872L40.8758 72.5618ZM41.9144 67.6732L41.9208 68.6732L42.1768 68.6716L42.4005 68.5471L41.9144 67.6732ZM41.9528 67.6696L42.0331 68.6664L42.0332 68.6664L41.9528 67.6696ZM55.9841 62.8L55.5369 61.9056L55.5369 61.9056L55.9841 62.8ZM56.2911 62.6465L55.8472 61.7504L55.8439 61.7521L56.2911 62.6465ZM70.6007 59.4643L70.5784 60.4641L70.6007 60.4646L70.6229 60.4641L70.6007 59.4643ZM84.9103 62.6465L85.3575 61.7521L85.3541 61.7504L84.9103 62.6465ZM85.2173 62.8L85.6645 61.9056L85.6645 61.9056L85.2173 62.8ZM99.2486 67.6696L99.1682 68.6664L99.1683 68.6664L99.2486 67.6696ZM99.287 67.6732L98.8008 68.5471L99.0246 68.6716L99.2806 68.6732L99.287 67.6732ZM101.773 69.6997L100.795 69.9075L100.795 69.9075L101.773 69.6997ZM100.326 72.5618L100.705 73.4872L100.721 73.4803L100.738 73.4728L100.326 72.5618ZM89.8607 81.6944L88.9907 81.2013L88.9483 81.276L88.9194 81.3568L89.8607 81.6944ZM12.0896 53.8021L13.0683 54.0075L13.0698 53.9999L12.0896 53.8021ZM18.0807 40.2236L18.8876 40.8143L18.8947 40.8045L18.9016 40.7946L18.0807 40.2236ZM14.067 56.8309L13.8614 57.8096L13.8667 57.8107L14.067 56.8309ZM14.594 56.8847L14.5925 57.8847L14.5968 57.8846L14.594 56.8847ZM17.0933 54.8381L18.0731 55.0381L18.0736 55.0356L17.0933 54.8381ZM22.1917 43.2498L22.9996 43.8391L23.0073 43.8286L23.0147 43.8178L22.1917 43.2498ZM33.4346 36.8136V35.8136H33.3981L33.3616 35.8162L33.4346 36.8136ZM33.4346 31.6973V30.6973H33.4092L33.3838 30.6986L33.4346 31.6973ZM119.639 92.3062L118.832 91.7155L118.825 91.7252L118.818 91.7351L119.639 92.3062ZM125.63 78.7276L124.651 78.5222L124.65 78.5298L125.63 78.7276ZM104.285 100.832V101.832H104.31L104.336 101.831L104.285 100.832ZM104.285 95.7162V96.7162H104.321L104.358 96.7135L104.285 95.7162ZM115.528 89.2799L114.72 88.6906L114.712 88.7012L114.705 88.7119L115.528 89.2799ZM120.626 77.6916L119.646 77.4916L119.646 77.4941L120.626 77.6916ZM123.125 75.6451L123.127 74.6451L123.123 74.6451L123.125 75.6451ZM123.652 75.6988L123.858 74.7202L123.853 74.7191L123.652 75.6988ZM5.80178 88.2191C7.37337 91.7525 10.4303 97.6617 15.1252 102.702C19.824 107.746 26.243 112 34.507 112V110C26.9925 110 21.066 106.145 16.5887 101.339C12.1076 96.528 9.15805 90.8437 7.62919 87.4063L5.80178 88.2191ZM9.05802 33.5459C-1.78338 48.2029 -2.9225 68.6659 5.80226 88.2201L7.62871 87.4052C-0.867854 68.3624 0.341382 48.6935 10.6659 34.7352L9.05802 33.5459ZM13.6773 28.5401C12.5953 29.5472 10.7399 31.2721 9.05802 33.5459L10.6659 34.7352C12.2275 32.6241 13.9608 31.0085 15.0399 30.004L13.6773 28.5401ZM13.7078 28.5128L13.7078 28.5128L15.0094 30.0313L15.0094 30.0313L13.7078 28.5128ZM14.4692 27.7751C14.3571 27.905 14.1067 28.1404 13.6773 28.5401L15.04 30.004C15.421 29.6493 15.7803 29.3171 15.9836 29.0814L14.4692 27.7751ZM26.3486 21.4905C22.0267 22.6735 18.0126 24.7793 14.5829 27.6628L15.8699 29.1937C19.0784 26.4962 22.8335 24.5262 26.8766 23.4196L26.3486 21.4905ZM35.5185 20.5427C34.2312 20.4355 29.8163 20.5413 26.3486 21.4905L26.8766 23.4196C30.0819 22.5422 34.2574 22.4446 35.3527 22.5358L35.5185 20.5427ZM48.8959 28.0288C47.5342 25.8202 44.9649 24.0311 42.4508 22.7757C39.9251 21.5145 37.2555 20.6937 35.5222 20.543L35.349 22.5355C36.7498 22.6573 39.1695 23.3727 41.5573 24.565C43.9566 25.7631 46.1247 27.3449 47.1934 29.0784L48.8959 28.0288ZM50.0462 30.5058C49.7613 29.6378 49.3752 28.8064 48.8959 28.0288L47.1934 29.0784C47.5903 29.7223 47.91 30.4107 48.1459 31.1293L50.0462 30.5058ZM48.7487 41.8489C50.7156 38.4144 51.1875 34.3233 50.0541 30.5312L48.1379 31.1039C49.1144 34.3711 48.7078 37.8959 47.0131 40.855L48.7487 41.8489ZM58.8581 31.6976C58.8581 34.3933 57.4263 36.2888 55.2726 37.6754C53.0878 39.0822 50.243 39.8992 47.6995 40.3685L48.0623 42.3353C50.7041 41.8479 53.8479 40.9715 56.3553 39.357C58.8939 37.7226 60.8581 35.2692 60.8581 31.6976H58.8581ZM58.8581 6.11626V31.6976H60.8581V6.11626H58.8581ZM64.9743 0C61.5964 0 58.8581 2.73834 58.8581 6.11626H60.8581C60.8581 3.84291 62.701 2 64.9743 2V0ZM66.0724 0H64.9743V2H66.0724V0ZM75.2068 0H66.0724V2H75.2068V0ZM76.3049 0H75.2068V2H76.3049V0ZM82.4212 6.11626C82.4212 2.73834 79.6828 0 76.3049 0V2C78.5783 2 80.4212 3.84291 80.4212 6.11626H82.4212ZM82.4212 31.6976V6.11626H80.4212V31.6976H82.4212ZM93.5798 40.3685C91.0362 39.8992 88.1914 39.0822 86.0066 37.6754C83.8529 36.2888 82.4212 34.3933 82.4212 31.6976H80.4212C80.4212 35.2692 82.3853 37.7226 84.9239 39.357C87.4313 40.9715 90.5751 41.8479 93.2169 42.3353L93.5798 40.3685ZM91.2251 30.5312C90.0917 34.3233 90.5636 38.4144 92.5306 41.8489L94.2661 40.855C92.5714 37.8959 92.1648 34.3711 93.1413 31.1039L91.2251 30.5312ZM92.3834 28.0288C91.904 28.8064 91.5179 29.6378 91.2331 30.5058L93.1334 31.1293C93.3692 30.4107 93.6889 29.7223 94.0858 29.0784L92.3834 28.0288ZM105.757 20.543C104.024 20.6937 101.354 21.5145 98.8285 22.7757C96.3144 24.0311 93.745 25.8202 92.3834 28.0288L94.0858 29.0784C95.1545 27.3449 97.3226 25.7631 99.722 24.565C102.11 23.3727 104.529 22.6573 105.93 22.5355L105.757 20.543ZM114.931 21.4905C111.463 20.5413 107.048 20.4355 105.761 20.5427L105.927 22.5358C107.022 22.4446 111.197 22.5422 114.403 23.4196L114.931 21.4905ZM126.696 27.6628C123.267 24.7793 119.253 22.6735 114.931 21.4905L114.403 23.4196C118.446 24.5262 122.201 26.4962 125.409 29.1937L126.696 27.6628ZM127.602 28.5397C127.172 28.1402 126.922 27.905 126.81 27.7751L125.296 29.0814C125.499 29.317 125.858 29.6491 126.239 30.0036L127.602 28.5397ZM127.589 28.5286L127.589 28.5284L126.251 30.015L126.251 30.0152L127.589 28.5286ZM127.615 28.5522L127.615 28.552L126.226 29.9917L126.226 29.9919L127.615 28.5522ZM132.221 33.5459C130.539 31.2721 128.684 29.5472 127.602 28.5401L126.239 30.004C127.318 31.0085 129.052 32.6241 130.613 34.7352L132.221 33.5459ZM135.477 88.2201C144.202 68.6659 143.063 48.2029 132.221 33.5459L130.613 34.7352C140.938 48.6935 142.147 68.3624 133.651 87.4052L135.477 88.2201ZM106.772 112C115.036 112 121.455 107.746 126.154 102.702C130.849 97.6617 133.906 91.7525 135.477 88.2191L133.65 87.4063C132.121 90.8437 129.172 96.528 124.691 101.339C120.213 106.145 114.287 110 106.772 110V112ZM96.5093 110.086C99.7796 111.37 103.265 112.02 106.778 112L106.767 110C103.507 110.018 100.274 109.416 97.2403 108.224L96.5093 110.086ZM94.4349 108.872C94.8793 109.166 95.295 109.429 95.641 109.634C95.9606 109.824 96.2907 110.007 96.5321 110.095L97.2176 108.216C97.22 108.217 97.2068 108.212 97.1735 108.196C97.1421 108.181 97.101 108.161 97.0496 108.134C96.9465 108.079 96.816 108.006 96.661 107.914C96.3513 107.73 95.9647 107.486 95.5395 107.204L94.4349 108.872ZM84.4567 79.048C81.9887 88.5275 83.1209 95.2953 85.6227 100.077C88.1142 104.84 91.8975 107.505 94.5118 108.918L95.4625 107.158C93.0523 105.856 89.6371 103.436 87.3949 99.1502C85.1629 94.8839 84.0261 88.6402 86.3922 79.5519L84.4567 79.048ZM91.7714 70.5194C88.7727 72.7146 86.3031 75.553 84.5436 78.8265L86.3053 79.7734C87.9235 76.7627 90.1948 74.1521 92.9528 72.1332L91.7714 70.5194ZM82.4777 68.2836C85.5639 69.8498 88.7625 71.184 92.0468 72.2752L92.6774 70.3773C89.4873 69.3173 86.3805 68.0214 83.3828 66.5001L82.4777 68.2836ZM82.1757 68.1313L82.4801 68.2848L83.3805 66.4989L83.0761 66.3454L82.1757 68.1313ZM71.3075 65.2013C75.176 65.5163 78.9917 66.5553 82.1823 68.1346L83.0695 66.3421C79.6369 64.6431 75.573 63.542 71.4698 63.2079L71.3075 65.2013ZM59.0191 68.1346C62.5363 66.3936 66.9799 65.3442 71.4202 65.2041L71.3571 63.2051C66.6687 63.353 61.938 64.4582 58.1319 66.3421L59.0191 68.1346ZM58.7213 68.2848L59.0257 68.1313L58.1253 66.3454L57.8209 66.4989L58.7213 68.2848ZM49.1546 72.2752C52.4389 71.184 55.6374 69.8498 58.7236 68.2836L57.8185 66.5001C54.8209 68.0214 51.7141 69.3173 48.524 70.3773L49.1546 72.2752ZM56.6577 78.8265C54.8983 75.553 52.4287 72.7146 49.4299 70.5194L48.2486 72.1332C51.0066 74.1521 53.2779 76.7627 54.8961 79.7734L56.6577 78.8265ZM47.1608 108.656C49.822 107.141 53.4507 104.397 55.7936 99.6546C58.1444 94.8964 59.1401 88.2489 56.7446 79.048L54.8092 79.5519C57.1064 88.3756 56.1012 94.5168 54.0005 98.7687C51.892 103.037 48.6189 105.524 46.1709 106.918L47.1608 108.656ZM44.7472 110.095C45.0151 109.997 45.4051 109.776 45.7887 109.544C46.2032 109.293 46.7026 108.971 47.2271 108.615L46.1046 106.96C45.6012 107.301 45.1313 107.604 44.7528 107.833C44.5632 107.948 44.402 108.041 44.2743 108.11C44.2105 108.144 44.159 108.171 44.1193 108.19C44.077 108.21 44.0597 108.216 44.0616 108.216L44.7472 110.095ZM34.5013 112C38.0146 112.02 41.4996 111.37 44.7699 110.086L44.0389 108.224C41.0051 109.416 37.772 110.018 34.5127 110L34.5013 112ZM91.2992 97.7599C91.1063 97.5065 90.9161 97.2568 90.7312 97.0206L89.1565 98.2537C89.3316 98.4773 89.5133 98.7158 89.7079 98.9715L91.2992 97.7599ZM97.9244 103.471C94.7121 102.216 92.8379 99.7808 91.2992 97.7599L89.7079 98.9715C91.2315 100.973 93.4032 103.851 97.1966 105.334L97.9244 103.471ZM106.765 104.883C104.081 104.901 101.052 104.693 97.9244 103.471L97.1966 105.334C100.664 106.688 103.984 106.902 106.779 106.883L106.765 104.883ZM128.976 85.3267C127.649 88.3126 125.111 93.2432 121.364 97.4122C117.614 101.584 112.757 104.883 106.772 104.883V106.883C113.552 106.883 118.907 103.137 122.852 98.7492C126.799 94.358 129.437 89.2135 130.804 86.1391L128.976 85.3267ZM126.5 37.7768C135.707 50.2249 136.717 67.9757 128.977 85.3255L130.803 86.1404C138.765 68.2954 137.841 49.7463 128.108 36.5875L126.5 37.7768ZM106.311 27.647C114.322 27.3269 121.938 31.141 126.48 37.7486L128.128 36.6157C123.197 29.442 114.929 25.301 106.231 25.6486L106.311 27.647ZM98.0148 32.6828C98.4672 31.2558 99.6265 30.0714 101.2 29.1892C102.768 28.3102 104.651 27.7884 106.355 27.6442L106.187 25.6514C104.232 25.8167 102.067 26.4103 100.222 27.4447C98.3825 28.476 96.7662 30.0033 96.1083 32.0784L98.0148 32.6828ZM101.436 41.7605C98.6092 39.6321 97.2818 36.0513 98.0384 32.5944L96.0847 32.1667C95.1608 36.3875 96.7816 40.7596 100.233 43.3583L101.436 41.7605ZM102.525 45.7373C103.039 44.3342 102.622 42.7595 101.48 41.7954L100.19 43.3234C100.69 43.7456 100.872 44.4351 100.647 45.0496L102.525 45.7373ZM99.1815 48.0719C100.676 48.0731 102.012 47.1405 102.525 45.7374L100.647 45.0496C100.422 45.664 99.8374 46.0724 99.183 46.0719L99.1815 48.0719ZM75.3151 31.6976C75.3151 39.9254 81.3196 44.0195 87.0702 46.0189C92.8309 48.0218 98.6826 48.0719 99.1823 48.0719V46.0719C98.7482 46.0719 93.1663 46.021 87.727 44.1298C82.2774 42.2351 77.3151 38.6419 77.3151 31.6976H75.3151ZM75.3151 6.11626V31.6976H77.3151V6.11626H75.3151ZM64.9641 7.11626H76.3151V5.11626H64.9641V7.11626ZM65.9641 31.6976V6.11626H63.9641V31.6976H65.9641ZM42.097 48.0719C42.5966 48.0719 48.4483 48.0218 54.2091 46.0189C59.9597 44.0195 65.9641 39.9254 65.9641 31.6976H63.9641C63.9641 38.6419 59.0018 42.2351 53.5523 44.1298C48.1129 46.021 42.531 46.0719 42.097 46.0719V48.0719ZM38.7538 45.7374C39.2677 47.1405 40.6035 48.0731 42.0977 48.0719L42.0962 46.0719C41.4418 46.0724 40.8569 45.664 40.6319 45.0496L38.7538 45.7374ZM39.7992 41.7954C38.6576 42.7595 38.24 44.3342 38.7538 45.7373L40.6319 45.0496C40.4068 44.4351 40.5897 43.7456 41.0896 43.3234L39.7992 41.7954ZM43.2408 32.5944C43.9974 36.0513 42.6701 39.6321 39.843 41.7605L41.0459 43.3583C44.4977 40.7596 46.1184 36.3875 45.1945 32.1667L43.2408 32.5944ZM34.9241 27.6442C36.6279 27.7884 38.5117 28.3102 40.0794 29.1892C41.6528 30.0714 42.812 31.2558 43.2644 32.6828L45.1709 32.0784C44.5131 30.0033 42.8967 28.476 41.0576 27.4447C39.2127 26.4103 37.047 25.8167 35.0927 25.6514L34.9241 27.6442ZM14.7995 37.7486C19.3414 31.141 26.9568 27.3269 34.9685 27.647L35.0483 25.6486C26.3502 25.301 18.0824 29.442 13.1514 36.6157L14.7995 37.7486ZM12.3024 85.3255C4.56197 67.9757 5.57207 50.2249 14.7794 37.7768L13.1715 36.5875C3.43845 49.7463 2.51461 68.2954 10.476 86.1404L12.3024 85.3255ZM34.507 104.883C28.5222 104.883 23.6651 101.584 19.9151 97.4122C16.1678 93.2432 13.6302 88.3126 12.303 85.3267L10.4754 86.1391C11.8419 89.2135 14.4807 94.358 18.4276 98.7492C22.3717 103.137 27.7268 106.883 34.507 106.883V104.883ZM43.3548 103.471C40.2275 104.693 37.1983 104.901 34.5137 104.883L34.5002 106.883C37.2949 106.902 40.6148 106.688 44.0827 105.334L43.3548 103.471ZM49.9801 97.7599C48.4413 99.7808 46.5671 102.216 43.3548 103.471L44.0827 105.334C47.876 103.851 50.0477 100.973 51.5713 98.9715L49.9801 97.7599ZM49.9826 97.7565L49.9811 97.7586L51.5703 98.9728L51.5719 98.9708L49.9826 97.7565ZM50.393 97.2201C50.2584 97.3944 50.1208 97.5751 49.9816 97.7579L51.5729 98.9694C51.7128 98.7856 51.8462 98.6105 51.9758 98.4426L50.393 97.2201ZM50.3994 82.0319C52.5307 87.9757 51.8686 93.2275 50.25 97.4753L52.1189 98.1874C53.8766 93.5748 54.6015 87.8254 52.282 81.3568L50.3994 82.0319ZM40.4967 73.4872C44.6849 75.2027 48.0885 77.984 50.4707 82.1874L52.2107 81.2013C49.59 76.577 45.8241 73.5081 41.2548 71.6365L40.4967 73.4872ZM38.4502 69.4919C38.1028 71.127 38.9405 72.7835 40.4634 73.4728L41.2882 71.6508C40.6213 71.349 40.2544 70.6236 40.4066 69.9075L38.4502 69.4919ZM41.908 66.6733C40.2364 66.6839 38.7976 67.8567 38.4502 69.4919L40.4066 69.9075C40.5587 69.1915 41.1888 68.6779 41.9208 68.6732L41.908 66.6733ZM41.8724 66.6728C41.8628 66.6736 41.847 66.6749 41.8339 66.6761C41.8286 66.6766 41.8125 66.678 41.7936 66.6804C41.7855 66.6814 41.7628 66.6843 41.7345 66.6895C41.7209 66.692 41.6929 66.6974 41.6582 66.7066C41.6405 66.7113 41.6132 66.719 41.5806 66.7306C41.5518 66.7408 41.495 66.7622 41.4283 66.7994L42.4005 68.5471C42.3338 68.5842 42.2771 68.6056 42.2485 68.6158C42.216 68.6273 42.1888 68.635 42.1713 68.6397C42.1369 68.6488 42.1094 68.6541 42.0963 68.6565C42.0689 68.6615 42.0477 68.6642 42.0413 68.665C42.0322 68.6661 42.0253 68.6668 42.0223 68.6671C42.0189 68.6675 42.0165 68.6677 42.0158 68.6678C42.0155 68.6678 42.0182 68.6676 42.0331 68.6664L41.8724 66.6728ZM55.5369 61.9056C46.7361 66.306 42.206 66.6459 41.8723 66.6729L42.0332 68.6664C42.6265 68.6185 47.4052 68.2075 56.4313 63.6944L55.5369 61.9056ZM55.8439 61.7521L55.5369 61.9056L56.4313 63.6944L56.7383 63.541L55.8439 61.7521ZM70.6229 58.4646C65.5703 58.3521 60.4966 59.4474 55.8472 61.7504L56.735 63.5426C61.091 61.3849 65.8443 60.3587 70.5784 60.4641L70.6229 58.4646ZM85.3541 61.7504C80.7047 59.4474 75.6311 58.3521 70.5784 58.4646L70.6229 60.4641C75.3571 60.3587 80.1104 61.3849 84.4664 63.5426L85.3541 61.7504ZM85.6645 61.9056L85.3575 61.7521L84.4631 63.541L84.7701 63.6944L85.6645 61.9056ZM99.329 66.6729C98.9954 66.6459 94.4653 66.306 85.6645 61.9056L84.7701 63.6944C93.7962 68.2075 98.5749 68.6185 99.1682 68.6664L99.329 66.6729ZM99.7731 66.7994C99.7063 66.7622 99.6495 66.7408 99.6208 66.7306C99.5881 66.719 99.5608 66.7113 99.5431 66.7066C99.5084 66.6974 99.4805 66.692 99.4669 66.6895C99.4385 66.6843 99.4159 66.6814 99.4078 66.6804C99.3888 66.678 99.3727 66.6766 99.3674 66.6761C99.3544 66.6749 99.3385 66.6736 99.3289 66.6728L99.1683 68.6664C99.1831 68.6676 99.1858 68.6678 99.1856 68.6678C99.1849 68.6677 99.1825 68.6675 99.1791 68.6671C99.176 68.6668 99.1692 68.6661 99.1601 68.665C99.1537 68.6642 99.1325 68.6615 99.1051 68.6565C99.092 68.6541 99.0645 68.6488 99.0301 68.6397C99.0126 68.635 98.9855 68.6273 98.9529 68.6158C98.9243 68.6056 98.8675 68.5842 98.8008 68.5471L99.7731 66.7994ZM102.751 69.4919C102.404 67.8567 100.965 66.6839 99.2933 66.6733L99.2806 68.6732C100.013 68.6779 100.643 69.1915 100.795 69.9075L102.751 69.4919ZM100.738 73.4728C102.261 72.7835 103.099 71.127 102.751 69.4919L100.795 69.9075C100.947 70.6236 100.58 71.3489 99.9132 71.6508L100.738 73.4728ZM90.7307 82.1874C93.1129 77.984 96.5165 75.2027 100.705 73.4872L99.9465 71.6365C95.3773 73.5081 91.6114 76.577 88.9907 81.2013L90.7307 82.1874ZM90.8811 97.2886C89.3143 93.0746 88.7015 87.8897 90.802 82.0319L88.9194 81.3568C86.6339 87.7307 87.3041 93.407 89.0065 97.9857L90.8811 97.2886ZM71.6486 41.9304V52.1629H73.6486V41.9304H71.6486ZM70.0904 40.3723C70.951 40.3723 71.6486 41.0699 71.6486 41.9304H73.6486C73.6486 39.9653 72.0555 38.3723 70.0904 38.3723V40.3723ZM68.5323 41.9304C68.5323 41.0699 69.2299 40.3723 70.0904 40.3723V38.3723C68.1253 38.3723 66.5323 39.9653 66.5323 41.9304H68.5323ZM68.5323 52.1629V41.9304H66.5323V52.1629H68.5323ZM70.0904 53.721C69.2299 53.721 68.5323 53.0234 68.5323 52.1629H66.5323C66.5323 54.128 68.1253 55.721 70.0904 55.721V53.721ZM71.6486 52.1629C71.6486 53.0234 70.951 53.721 70.0904 53.721V55.721C72.0555 55.721 73.6486 54.128 73.6486 52.1629H71.6486ZM13.0698 53.9999C14.0313 49.2352 16.0163 44.7363 18.8876 40.8143L17.2739 39.6328C14.2314 43.7886 12.1281 48.5557 11.1094 53.6043L13.0698 53.9999ZM14.2727 55.8523C13.4308 55.6754 12.8916 54.8495 13.0683 54.0075L11.1109 53.5967C10.7074 55.5195 11.9387 57.4055 13.8614 57.8096L14.2727 55.8523ZM14.5955 55.8847C14.4853 55.8845 14.3753 55.8733 14.2673 55.8512L13.8667 57.8107C14.1056 57.8595 14.3487 57.8843 14.5925 57.8847L14.5955 55.8847ZM16.1135 54.6381C15.9658 55.362 15.33 55.8826 14.5912 55.8847L14.5968 57.8846C16.2839 57.8799 17.7357 56.6911 18.0731 55.0381L16.1135 54.6381ZM21.3837 42.6605C18.7826 46.2266 16.9845 50.3137 16.113 54.6407L18.0736 55.0356C18.8882 50.9916 20.5686 47.172 22.9996 43.8391L21.3837 42.6605ZM33.3616 35.8162C28.5304 36.1701 24.12 38.6949 21.3686 42.6818L23.0147 43.8178C25.4219 40.3295 29.2807 38.1205 33.5077 37.8109L33.3616 35.8162ZM34.9928 34.2554C34.9928 35.116 34.2952 35.8136 33.4346 35.8136V37.8136C35.3997 37.8136 36.9928 36.2205 36.9928 34.2554H34.9928ZM33.4346 32.6973C34.2952 32.6973 34.9928 33.3949 34.9928 34.2554H36.9928C36.9928 32.2903 35.3997 30.6973 33.4346 30.6973V32.6973ZM18.9016 40.7946C22.2481 35.9841 27.633 32.9938 33.4855 32.696L33.3838 30.6986C26.9133 31.0279 20.9597 34.334 17.2598 39.6525L18.9016 40.7946ZM120.446 92.8969C123.488 88.7411 125.591 83.9741 126.61 78.9254L124.65 78.5298C123.688 83.2945 121.703 87.7935 118.832 91.7155L120.446 92.8969ZM104.336 101.831C110.806 101.502 116.76 98.1957 120.46 92.8772L118.818 91.7351C115.471 96.5456 110.086 99.5359 104.234 99.8337L104.336 101.831ZM100.727 98.2743C100.727 100.239 102.32 101.832 104.285 101.832V99.8324C103.424 99.8324 102.727 99.1348 102.727 98.2743H100.727ZM104.285 94.7162C102.32 94.7162 100.727 96.3092 100.727 98.2743H102.727C102.727 97.4138 103.424 96.7162 104.285 96.7162V94.7162ZM114.705 88.7119C112.297 92.2002 108.439 94.4092 104.212 94.7188L104.358 96.7135C109.189 96.3597 113.599 93.8348 116.351 89.8479L114.705 88.7119ZM119.646 77.4941C118.831 81.5381 117.151 85.3578 114.72 88.6906L116.336 89.8692C118.937 86.3031 120.735 82.2161 121.606 77.889L119.646 77.4941ZM123.123 74.6451C121.436 74.6498 119.984 75.8386 119.646 77.4916L121.606 77.8916C121.754 77.1677 122.389 76.6471 123.128 76.6451L123.123 74.6451ZM123.853 74.7191C123.614 74.6702 123.371 74.6454 123.127 74.6451L123.124 76.6451C123.234 76.6452 123.344 76.6564 123.452 76.6785L123.853 74.7191ZM126.608 78.933C127.012 77.0102 125.781 75.1243 123.858 74.7202L123.447 76.6774C124.289 76.8544 124.828 77.6802 124.651 78.5222L126.608 78.933Z" fill="#FFC59E" mask="url(#path-1-outside-1_376_1636)"/>
</svg>
