<svg width="40" height="40" viewBox="0 0 40 40" fill="none" xmlns="http://www.w3.org/2000/svg">
<path fill-rule="evenodd" clip-rule="evenodd" d="M0 19.975C0 8.94382 8.94382 0 19.975 0C31.0062 0 39.9501 8.94136 39.9501 19.975C39.9501 31.0062 31.0062 39.9501 19.975 39.9501C8.94382 39.9501 0 31.0062 0 19.975ZM21.8651 19.9749L25.1385 19.9725L25.5754 15.8427H21.8601L21.8651 13.7753C21.8651 12.6991 21.94 12.1224 23.4856 12.1224H25.553V7.99005H22.2471C18.2796 7.99005 17.3657 10.04 17.3657 13.4107L17.3707 15.8427L14.3745 15.8452V19.975H17.3707V31.9599H21.8626L21.8651 19.9749Z" fill="#C3B9B5"/>
</svg>
