<svg width="53" height="63" viewBox="0 0 53 63" fill="none" xmlns="http://www.w3.org/2000/svg">
<path fill-rule="evenodd" clip-rule="evenodd" d="M34.3159 21.0354L51.0964 52.0708C55.16 58.1057 52.5041 63 45.1639 63H7.94604C0.604552 63 -2.14435 58.0466 1.80354 51.9356L17.2508 21.0367V5.27756H15.7302C14.9951 5.27756 14.4009 4.69089 14.4009 3.96506V1.3125C14.4009 0.588013 14.9951 0 15.7302 0H17.2508H34.3159H35.9761C36.7112 0 37.3054 0.588013 37.3054 1.3125V3.96506C37.3054 4.69089 36.7112 5.27756 35.9761 5.27756H34.3159V21.0354ZM22.5666 22.2611L22.0176 23.3596L15.2955 36.8075H36.8162L29.6249 23.5093L28.9988 22.3503V21.0365V5.27734H22.5666V21.0365V22.2611Z" fill="#FFC59E"/>
</svg>
