<svg width="112" height="112" viewBox="0 0 112 112" fill="none" xmlns="http://www.w3.org/2000/svg">
<path d="M56.6473 97.0727L50.8668 102.853C39.3368 114.383 20.6756 114.382 9.14716 102.853C-2.38305 91.323 -2.38172 72.662 9.14715 61.1331L12.7402 57.54C24.2632 46.017 59.0683 11.2116 61.1332 9.14708C61.1332 9.14706 61.1332 9.14705 61.1333 9.14704M56.6473 97.0727L102.499 50.5134C113.833 39.1797 113.834 20.8353 102.499 9.50063C91.1661 -1.83279 72.8215 -1.83429 61.4868 9.50063L61.1333 9.14704M56.6473 97.0727C61.7993 105.7 71.231 111.493 81.9929 111.493C98.2599 111.493 111.493 98.26 111.493 81.9931C111.493 71.231 105.7 61.7993 97.0726 56.6472L102.853 50.8669C114.382 39.338 114.383 20.6771 102.853 9.14707C91.3244 -2.38158 72.6632 -2.38313 61.1333 9.14704M56.6473 97.0727L61.1333 9.14704M14.4113 97.5888L14.0577 97.9424L14.4113 97.5888C5.79174 88.9695 5.79049 75.0179 14.4113 66.3973L14.0577 66.0437L14.4113 66.3973L37.5756 43.233L58.5052 64.1625C54.7341 69.1181 52.4925 75.299 52.4925 81.9928C52.4925 84.6513 52.8471 87.2291 53.5098 89.6819L45.6028 97.5888C36.9833 106.208 23.0319 106.209 14.4113 97.5888ZM97.5887 14.4112L97.9423 14.0577L97.5887 14.4112C106.208 23.0306 106.21 36.9822 97.5887 45.6028L89.6818 53.5097C87.229 52.8468 84.6514 52.4924 81.9929 52.4924C75.098 52.4924 68.7483 54.8718 63.7204 58.8498L42.8395 37.9689L66.3972 14.4112C75.0167 5.79187 88.9681 5.79062 97.5887 14.4112ZM78.2705 103.733C67.8753 101.959 59.937 92.8852 59.937 81.9928C59.937 71.1005 67.8753 62.0268 78.2705 60.2527V103.733ZM85.7152 103.733V60.2529C96.1103 62.0271 104.049 71.1007 104.049 81.9931C104.049 92.8852 96.1103 101.959 85.7152 103.733Z" fill="#FFC59E" stroke="#FFC59E"/>
</svg>
